<?xml version="1.0" encoding="UTF-8" standalone="no"?>
<svg width="198px" height="342px" viewBox="0 0 198 342" version="1.1" xmlns="http://www.w3.org/2000/svg" xmlns:xlink="http://www.w3.org/1999/xlink" xmlns:sketch="http://www.bohemiancoding.com/sketch/ns">
    <!-- Generator: Sketch 3.3.3 (12072) - http://www.bohemiancoding.com/sketch -->
    <title>Rectangle 1</title>
    <desc>Created with Sketch.</desc>
    <defs>
        <rect id="path-1" x="9" y="35" width="198" height="342"></rect>
    </defs>
    <g id="Page-1" stroke="none" stroke-width="1" fill="none" fill-rule="evenodd" sketch:type="MSPage">
        <g id="Scenarios-card--Act-3" sketch:type="MSLayerGroup" transform="translate(-9.000000, -35.000000)">
            <g id="back-">
                <g id="Rectangle-1">
                    <use fill="#273168" sketch:type="MSShapeGroup" xlink:href="#path-1"></use>
                    <use fill-opacity="0.2" fill="none" xlink:href="#path-1"></use>
                </g>
                <text id="SCENARIO" stroke="#FFFFFF" sketch:type="MSTextLayer" transform="translate(85.000000, 261.186292) rotate(45.000000) translate(-85.000000, -261.186292) " font-family="Superclarendon" font-size="24" font-weight="normal" line-spacing="30" fill="#FFFFFF">
                    <tspan x="11" y="269.686292">SCENARIO</tspan>
                </text>
                <rect id="Rectangle-23" fill="#FFFFFF" sketch:type="MSShapeGroup" transform="translate(119.120098, 197.132292) rotate(-315.000000) translate(-119.120098, -197.132292) " x="66.4788268" y="144.49102" width="105.282543" height="105.282543" rx="8"></rect>
                <rect id="Rectangle-23-Copy" fill="#FFFFFF" sketch:type="MSShapeGroup" transform="translate(93.500000, 118.686292) rotate(-315.000000) translate(-93.500000, -118.686292) " x="79.127417" y="104.313708" width="28.745166" height="28.745166" rx="8"></rect>
                <g id="Group-Copy-8" transform="translate(118.500000, 205.500000) rotate(-180.000000) translate(-118.500000, -205.500000) translate(98.000000, 142.000000)" fill="#D9DDF2" sketch:type="MSShapeGroup">
                    <path d="M0.356451236,84.6805155 C0.356451236,84.6332955 0.356451236,84.5812354 0.356451236,84.5291753 C0.356451236,83.847701 0.356451236,82.4860825 0.356451236,82.4860825 L40.1004271,82.4860825 L40.1004271,84.5102577 L40.1004271,87.0262887 L0.356451236,87.0262887 L0.356451236,84.6805155 Z" id="Rectangle-792-Copy-13" transform="translate(20.228439, 84.756186) rotate(-180.000000) translate(-20.228439, -84.756186) "></path>
                    <path d="M2.62753557,82.4104124 C2.62753557,82.3631925 2.62753557,82.3111323 2.62753557,82.2590722 C2.62753557,81.5775979 2.62753557,80.2159794 2.62753557,80.2159794 L37.8293428,80.2159794 L37.8293428,82.2401546 L37.8293428,84.7561856 L2.62753557,84.7561856 L2.62753557,82.4104124 Z" id="Rectangle-792-Copy-14" transform="translate(20.228439, 82.486082) rotate(-180.000000) translate(-20.228439, -82.486082) "></path>
                    <path d="M0.356451236,69.1052644 C0.356451236,69.0580445 0.356451236,69.0059843 0.356451236,68.9539242 C0.356451236,68.2724499 0.356451236,66.9108314 0.356451236,66.9108314 L40.1004271,66.9108314 L40.1004271,68.9350067 L40.1004271,71.4510376 L0.356451236,71.4510376 L0.356451236,69.1052644 Z" id="Rectangle-792-Copy-17" transform="translate(20.228439, 69.180934) rotate(-180.000000) translate(-20.228439, -69.180934) "></path>
                    <path d="M2.10787474,26.7928866 C2.10787474,26.7456667 2.10787474,26.6936065 2.10787474,26.6415464 C2.10787474,25.9600721 2.10787474,24.5984536 2.10787474,24.5984536 L37.309682,24.5984536 L37.309682,26.6226289 L37.309682,29.1386598 L2.10787474,29.1386598 L2.10787474,26.7928866 Z" id="Rectangle-792-Copy-26" transform="translate(19.708778, 26.868557) rotate(-180.000000) translate(-19.708778, -26.868557) "></path>
                    <path d="M2.62753557,69.9248454 C2.62753557,69.8776254 2.62753557,69.8255653 2.62753557,69.7735052 C2.62753557,69.0920308 2.62753557,67.7304124 2.62753557,67.7304124 L37.8293428,67.7304124 L37.8293428,69.7545876 L37.8293428,72.2706186 L2.62753557,72.2706186 L2.62753557,69.9248454 Z" id="Rectangle-792-Copy-16" transform="translate(20.228439, 70.000515) rotate(-180.000000) translate(-20.228439, -70.000515) "></path>
                    <path d="M13.9829573,99.8712887 L13.9829573,99.4551031 L13.9829573,93.8365979 L26.4739211,93.8365979 L26.4739211,99.4030799 L26.4739211,106.322165 L13.9829573,106.322165 L13.9829573,99.8712887 Z" id="Rectangle-792-Copy-15" transform="translate(20.228439, 100.079381) rotate(-180.000000) translate(-20.228439, -100.079381) "></path>
                    <path d="M13.9829573,113.056804 C13.9829573,113.009584 13.9829573,112.957524 13.9829573,112.905464 C13.9829573,112.22399 13.9829573,110.862371 13.9829573,110.862371 L26.4739211,110.862371 L26.4739211,112.886546 L26.4739211,115.402577 L13.9829573,115.402577 L13.9829573,113.056804 Z" id="Rectangle-792-Copy-22" transform="translate(20.228439, 113.132474) rotate(-180.000000) translate(-20.228439, -113.132474) "></path>
                    <path d="M15.1184994,107.816649 L15.1184994,107.400464 L15.1184994,101.781959 L25.3383789,101.781959 L25.3383789,107.348441 L25.3383789,114.267526 L15.1184994,114.267526 L15.1184994,107.816649 Z" id="Rectangle-792-Copy-21" transform="translate(20.228439, 108.024742) rotate(-180.000000) translate(-20.228439, -108.024742) "></path>
                    <path d="M35.5582585,44.5205652 C35.5582585,45.4242568 35.5582585,46.4205802 35.5582585,47.4169037 C35.5582585,60.458912 35.5582585,86.5174724 35.5582585,86.5174724 C35.5582585,86.5174724 34.4227163,101.781959 20.2284392,101.781959 C6.03416208,101.781959 4.89861991,86.5174724 4.89861991,86.5174724 C4.89861991,86.5174724 4.89861991,60.6686891 4.89861991,47.778946 C4.89861991,31.7053048 4.89861911,12.3259041 4.89861911,12.3259041 C4.89861911,12.3259041 13.0000004,3.82590408 15.6200985,1.99999628 C17.6200985,0.499996285 21.5000004,-0.174095925 24.5000004,1.99999923 C29.4999999,6.82589991 35.5582585,13.0000012 35.5582585,13.0000012 C35.5582585,13.0000012 35.5582585,29.4943954 35.5582585,44.5205652 Z" id="Rectangle-792-Copy-2"></path>
                    <path d="M19.5471139,48.4345361 L18.5251259,48.4345361 L18.5251259,9.84278351 L19.537651,9.84278351 L20.7962103,9.84278351 L20.7962103,48.4345361 L19.6228167,48.4345361 L19.5471139,48.4345361 Z" id="Rectangle-792-Copy-11" transform="translate(19.660668, 29.138660) rotate(-180.000000) translate(-19.660668, -29.138660) "></path>
                    <path d="M19.5471139,58.65 L18.5251259,58.65 L18.5251259,20.0582474 L19.537651,20.0582474 L20.7962103,20.0582474 L20.7962103,58.65 L19.6228167,58.65 L19.5471139,58.65 Z" id="Rectangle-792-Copy-12" transform="translate(19.660668, 39.354124) rotate(-180.000000) translate(-19.660668, -39.354124) "></path>
                    <path d="M15.1184994,120.689528 C15.1184994,120.689528 17.6476616,118.463163 19.3509748,118.463163 C19.8645989,118.046807 19.3509748,112.787905 19.3509748,112.787905 L21.6220589,112.787905 C21.6220589,112.787905 21.3009332,118.116633 21.6220589,118.463163 C24.4609148,118.463163 25.5964567,120.689528 25.5964567,120.689528 L25.5964567,126.753093 L15.1184994,126.753093 L15.1184994,120.689528 Z" id="Rectangle-355-Copy-9" transform="translate(20.357478, 119.770499) rotate(-180.000000) translate(-20.357478, -119.770499) "></path>
                </g>
                <text id="{----Inge---}" sketch:type="MSTextLayer" font-family="Baskerville" font-size="12" font-weight="normal" sketch:alignment="middle">
                    <tspan x="92.1230279" y="208.132292" fill="#273168">{    </tspan>
                    <tspan x="109.871075" y="208.132292" fill="#02007F">Inge   </tspan>
                    <tspan x="140.369122" y="208.132292" fill="#273168">}</tspan>
                </text>
                <g id="Act-1" transform="translate(87.500000, 180.132292)" font-weight="normal" font-family="Superclarendon" letter-spacing="1.10000002" sketch:type="MSTextLayer" font-size="13" sketch:alignment="middle" fill="#111E62">
                    <text id="ACT-III-">
                        <tspan x="3.22749992" y="13">ACT III</tspan>
                        <tspan x="63.7725001" y="13"> </tspan>
                    </text>
                </g>
                <text id="69" sketch:type="MSTextLayer" font-family="Gill Sans" font-size="13" font-weight="normal" sketch:alignment="middle" fill="#081660">
                    <tspan x="87.5" y="123.686292">69</tspan>
                </text>
                <text id="1943" sketch:type="MSTextLayer" transform="translate(26.000000, 232.186292) rotate(47.000000) translate(-26.000000, -232.186292) " font-family="Gill Sans" font-size="12" font-weight="normal" fill="#FFFFFF">
                    <tspan x="14" y="234.686292">1943</tspan>
                </text>
            </g>
        </g>
    </g>
</svg>