<?xml version="1.0" encoding="UTF-8" standalone="no"?>
<svg width="198px" height="342px" viewBox="0 0 198 342" version="1.1" xmlns="http://www.w3.org/2000/svg" xmlns:xlink="http://www.w3.org/1999/xlink" xmlns:sketch="http://www.bohemiancoding.com/sketch/ns">
    <!-- Generator: Sketch 3.3.3 (12072) - http://www.bohemiancoding.com/sketch -->
    <title>Rectangle 1 Copy 2</title>
    <desc>Created with Sketch.</desc>
    <defs>
        <rect id="path-1" x="9" y="35" width="198" height="342"></rect>
    </defs>
    <g id="Page-1" stroke="none" stroke-width="1" fill="none" fill-rule="evenodd" sketch:type="MSPage">
        <g id="Scenarios-card--Act-3" sketch:type="MSLayerGroup" transform="translate(-282.000000, -35.000000)">
            <g id="Front-" transform="translate(273.000000, 0.000000)">
                <rect id="Rectangle-1" fill="#EBE5C7" sketch:type="MSShapeGroup" x="9" y="35" width="198" height="342"></rect>
                <g id="Rectangle-1-Copy-2">
                    <use fill="#273168" sketch:type="MSShapeGroup" xlink:href="#path-1"></use>
                    <use fill-opacity="0.2" fill="none" xlink:href="#path-1"></use>
                </g>
                <path d="M21.5326561,207.5 C21.5326561,158.198236 19.2124499,57.9990663 19.2124499,57.9990663 C19.1131525,53.581304 22.619194,50 27.0257571,50 L163.395937,50 L191.035081,50 C195.45202,50 198.921639,53.5792794 198.787239,57.9929263 C198.787239,57.9929263 195.532656,160.863592 195.532656,212.564309 C195.532656,260.461519 198.772447,357.004981 198.772447,357.004981 C198.916156,361.420508 195.457346,365 191.036778,365 L27.0285346,365 C22.6125328,365 19.1147685,361.414397 19.2139593,357.000342 C19.2139593,357.000342 21.5326561,257.796162 21.5326561,207.5 Z" id="Rectangle-5" fill="#FFFFFF" sketch:type="MSShapeGroup"></path>
                <text id="You-are-reading-a-bo" sketch:type="MSTextLayer" font-family="Gill Sans" font-size="11" font-weight="normal" line-spacing="15" fill="#000000">
                    <tspan x="27.3725076" y="71.3739748">You are reading a book when </tspan>
                    <tspan x="27.3725076" y="86.3739748">Georg bursts into your </tspan>
                    <tspan x="27.3725076" y="101.373975">room.“Mama, it’s Anna. You have </tspan>
                    <tspan x="27.3725076" y="116.373975">to do something. She just ran out. </tspan>
                    <tspan x="27.3725076" y="131.373975">She says it’s something about </tspan>
                    <tspan x="27.3725076" y="146.373975">Father, she wouldn’t listen to me.” </tspan>
                    <tspan x="27.3725076" y="161.373975">It’s late at night and it isn’t safe for a </tspan>
                    <tspan x="27.3725076" y="176.373975">girl Anna’s age to be on the streets, </tspan>
                    <tspan x="27.3725076" y="191.373975">let alone by herself. </tspan>
                    <tspan x="117.402781" y="191.373975" font-family="Times"></tspan>
                </text>
                <text id="Do-you-go-after-her?" fill="#000000" sketch:type="MSTextLayer" font-family="Baskerville" font-size="12" font-weight="normal">
                    <tspan x="28" y="298.914014">Do you go after her? If so, show </tspan>
                    <tspan x="28" y="312.914014">us what happens when you </tspan>
                    <tspan x="28" y="326.914014">catch up to her. </tspan>
                    <tspan x="106.755859" y="326.914014" font-family="Times"></tspan>
                </text>
                <g id="Group-Copy-2" transform="translate(28.000000, 271.000000)" sketch:type="MSShapeGroup">
                    <path d="M0,4.5 L155.5,4.5" id="Path-9" stroke="#595F88"></path>
                    <rect id="Rectangle-23-Copy-3" stroke="#FFFFFF" stroke-width="2" fill="#5B628D" transform="translate(64.846020, 4.111961) rotate(-315.000000) translate(-64.846020, -4.111961) " x="62.6949869" y="1.96092804" width="4.30206541" height="4.30206541" rx="1"></rect>
                    <rect id="Rectangle-23-Copy-5" stroke="#FFFFFF" stroke-width="2" fill="#5B628D" transform="translate(91.254379, 4.111961) rotate(-315.000000) translate(-91.254379, -4.111961) " x="89.103346" y="1.96092804" width="4.30206541" height="4.30206541" rx="1"></rect>
                    <rect id="Rectangle-23-Copy-4" stroke="#FFFFFF" stroke-width="2" fill="#5B628D" transform="translate(78.000000, 4.228990) rotate(-315.000000) translate(-78.000000, -4.228990) " x="75.3334934" y="1.56248358" width="5.33301322" height="5.33301322" rx="1"></rect>
                </g>
            </g>
        </g>
    </g>
</svg>