<?xml version="1.0" encoding="UTF-8" standalone="no"?>
<svg width="26px" height="48px" viewBox="0 0 26 48" version="1.1" xmlns="http://www.w3.org/2000/svg" xmlns:xlink="http://www.w3.org/1999/xlink" xmlns:sketch="http://www.bohemiancoding.com/sketch/ns">
    <!-- Generator: Sketch 3.3.3 (12072) - http://www.bohemiancoding.com/sketch -->
    <title>Rectangle 4958 Copy 2</title>
    <desc>Created with Sketch.</desc>
    <defs></defs>
    <g id="Page-1" stroke="none" stroke-width="1" fill="none" fill-rule="evenodd" sketch:type="MSPage">
        <g id="Group" sketch:type="MSLayerGroup" transform="translate(-45.000000, -956.000000)" fill="#000000" opacity="0.880538713">
            <path d="M79.785983,966.976676 C79.3867395,966.577433 76.3983017,966.976676 74.6017072,966.976676 C69.0811561,966.976676 55.2682372,967.376284 53.2363172,967.376284 C48.7115623,966.643974 50.6412371,962.651543 53.3693983,962.651543 C54.2561507,962.651543 73.9185311,963.030637 78.088335,962.651543 C78.6119643,962.603937 78.088335,962.651543 78.088335,962.651543 C83.2522991,961.113322 85.2953189,965.765214 84.7099785,967.376284 L84.7099785,967.376284 C84.7099785,967.376284 84.7099792,993.792505 84.7099796,995.855259 C84.7099792,998.250717 80.1793437,998.982665 80.1793437,994.857152 C80.1793431,989.104191 80.1793422,978.268869 80.1793422,972.100296 C80.1793422,970.370242 80.1793422,967.376284 79.785983,966.976676 Z" id="Rectangle-4958-Copy-2" sketch:type="MSShapeGroup" transform="translate(67.769017, 980.013033) scale(-1, 1) rotate(-315.000000) translate(-67.769017, -980.013033) "></path>
        </g>
    </g>
</svg>