<?xml version="1.0" encoding="UTF-8" standalone="no"?>
<svg width="26px" height="48px" viewBox="0 0 26 48" version="1.1" xmlns="http://www.w3.org/2000/svg" xmlns:xlink="http://www.w3.org/1999/xlink" xmlns:sketch="http://www.bohemiancoding.com/sketch/ns">
    <!-- Generator: Sketch 3.3.3 (12072) - http://www.bohemiancoding.com/sketch -->
    <title>Rectangle 4958 Copy</title>
    <desc>Created with Sketch.</desc>
    <defs></defs>
    <g id="Page-1" stroke="none" stroke-width="1" fill="none" fill-rule="evenodd" sketch:type="MSPage">
        <g id="Group" sketch:type="MSLayerGroup" transform="translate(-1362.000000, -957.000000)" fill="#000000" opacity="0.880538713">
            <path d="M1377.38373,967.976676 C1376.98449,967.577433 1373.99605,967.976676 1372.19946,967.976676 C1366.67891,967.976676 1352.86599,968.376284 1350.83407,968.376284 C1346.30931,967.643974 1348.23899,963.651543 1350.96715,963.651543 C1351.8539,963.651543 1371.51628,964.030637 1375.68608,963.651543 C1376.20971,963.603937 1375.68608,963.651543 1375.68608,963.651543 C1380.85005,962.113322 1382.89307,966.765214 1382.30773,968.376284 L1382.30773,968.376284 C1382.30773,968.376284 1382.30773,994.792505 1382.30773,996.855259 C1382.30773,999.250717 1377.77709,999.982665 1377.77709,995.857152 C1377.77709,990.104191 1377.77709,979.268869 1377.77709,973.100296 C1377.77709,971.370242 1377.77709,968.376284 1377.38373,967.976676 Z" id="Rectangle-4958-Copy" sketch:type="MSShapeGroup" transform="translate(1365.366766, 981.013033) rotate(-315.000000) translate(-1365.366766, -981.013033) "></path>
        </g>
    </g>
</svg>